/* XPM */
static const char * IGN_xpm[] = {
"32 32 376 2",
"  	c None",
". 	c #221380",
"+ 	c #1B0A7B",
"@ 	c #1F107D",
"# 	c #120076",
"$ 	c #110076",
"% 	c #1A097B",
"& 	c #120176",
"* 	c #120375",
"= 	c #3A3162",
"- 	c #1E116F",
"; 	c #110075",
"> 	c #110175",
", 	c #110475",
"' 	c #100375",
") 	c #130376",
"! 	c #585154",
"~ 	c #C0BD1F",
"{ 	c #A6A22B",
"] 	c #1C0E74",
"^ 	c #100074",
"/ 	c #150F7B",
"( 	c #2C4497",
"_ 	c #4071AF",
": 	c #5093C2",
"< 	c #559EC7",
"[ 	c #539AC5",
"} 	c #4275B1",
"| 	c #202687",
"1 	c #100075",
"2 	c #180D70",
"3 	c #A7A32D",
"4 	c #817A41",
"5 	c #120376",
"6 	c #130878",
"7 	c #2A4094",
"8 	c #4B88BC",
"9 	c #5CAED0",
"0 	c #4B87BB",
"a 	c #3960A6",
"b 	c #25318D",
"c 	c #1D1F84",
"d 	c #1D2084",
"e 	c #304B9A",
"f 	c #110275",
"g 	c #1A0B72",
"h 	c #190C72",
"i 	c #130176",
"j 	c #222D8B",
"k 	c #539CC6",
"l 	c #5BADCF",
"m 	c #324F9D",
"n 	c #19147F",
"o 	c #110176",
"p 	c #1A1B81",
"q 	c #61BAD7",
"r 	c #242E8C",
"s 	c #17107C",
"t 	c #4174B0",
"u 	c #5FB7D5",
"v 	c #3A62A7",
"w 	c #140979",
"x 	c #130A78",
"y 	c #4E8FBE",
"z 	c #2F489A",
"A 	c #130476",
"B 	c #4D4598",
"C 	c #1B0E7B",
"D 	c #58A6CB",
"E 	c #5BADD0",
"F 	c #212C8A",
"G 	c #130777",
"H 	c #0F0174",
"I 	c #261E81",
"J 	c #E8E7F2",
"K 	c #938EC0",
"L 	c #1A1980",
"M 	c #5DB2D2",
"N 	c #15107C",
"O 	c #190C79",
"P 	c #494495",
"Q 	c #190D7A",
"R 	c #251B80",
"S 	c #B4AFD3",
"T 	c #1C117B",
"U 	c #514E9A",
"V 	c #FBFBFD",
"W 	c #574F9D",
"X 	c #150B7A",
"Y 	c #549CC6",
"Z 	c #58A8CD",
"` 	c #18157E",
" .	c #6965A8",
"..	c #FAFAFC",
"+.	c #9691C2",
"@.	c #100174",
"#.	c #4A4695",
"$.	c #E5E3F0",
"%.	c #170F79",
"&.	c #0D0073",
"*.	c #8E8BBE",
"=.	c #F4F3F8",
"-.	c #1F177D",
";.	c #2D4698",
">.	c #66C7DE",
",.	c #1F2A88",
"'.	c #110376",
").	c #1B1F83",
"!.	c #191780",
"~.	c #0F0074",
"{.	c #EDECF5",
"].	c #2E2986",
"^.	c #7773B0",
"/.	c #C1BDDB",
"(.	c #0D0072",
"_.	c #C0BDDB",
":.	c #C5C2DD",
"<.	c #0E0273",
"[.	c #4C88BC",
"}.	c #5298C4",
"|.	c #17137C",
"1.	c #2A3D94",
"2.	c #3D6BAC",
"3.	c #4F93C2",
"4.	c #19157F",
"5.	c #0B0071",
"6.	c #CCC9E1",
"7.	c #918CBF",
"8.	c #EAE9F3",
"9.	c #7C79B2",
"0.	c #A8A4CC",
"a.	c #9E9BC8",
"b.	c #0C0072",
"c.	c #1D137C",
"d.	c #EFEEF6",
"e.	c #817EB7",
"f.	c #0E0073",
"g.	c #559EC8",
"h.	c #4D8BBD",
"i.	c #3657A1",
"j.	c #65C4DC",
"k.	c #5EB4D3",
"l.	c #4E8FBF",
"m.	c #60B8D6",
"n.	c #66C6DD",
"o.	c #56A3CA",
"p.	c #130978",
"q.	c #21187E",
"r.	c #F1F0F7",
"s.	c #473D94",
"t.	c #7670AF",
"u.	c #E2E0EE",
"v.	c #DDDBEB",
"w.	c #716BAC",
"x.	c #1A0A7B",
"y.	c #23177F",
"z.	c #AEA9D0",
"A.	c #403890",
"B.	c #4985BA",
"C.	c #60B9D6",
"D.	c #16117C",
"E.	c #130778",
"F.	c #263890",
"G.	c #2B4295",
"H.	c #4D8FBF",
"I.	c #61BBD7",
"J.	c #4378B3",
"K.	c #362D8A",
"L.	c #CDCAE2",
"M.	c #2E2286",
"N.	c #1D117C",
"O.	c #C6C3DE",
"P.	c #F3F2F8",
"Q.	c #5B579F",
"R.	c #232E8C",
"S.	c #64C2DB",
"T.	c #57A3CA",
"U.	c #27378F",
"V.	c #17107D",
"W.	c #130C79",
"X.	c #18147E",
"Y.	c #232D8B",
"Z.	c #58A5CB",
"`.	c #467DB5",
" +	c #1D2586",
".+	c #304B9B",
"++	c #150977",
"@+	c #140B76",
"#+	c #100175",
"$+	c #120276",
"%+	c #2F4B9B",
"&+	c #69CDE1",
"*+	c #61BAD6",
"=+	c #63BED9",
"-+	c #67C8DE",
";+	c #5FB6D4",
">+	c #477EB7",
",+	c #1E2687",
"'+	c #2C4598",
")+	c #67C9DF",
"!+	c #1F2788",
"~+	c #130B79",
"{+	c #24318D",
"]+	c #304C9A",
"^+	c #2F4B9A",
"/+	c #26338F",
"(+	c #1A1C81",
"_+	c #120675",
":+	c #2C4096",
"<+	c #140A7A",
"[+	c #110576",
"}+	c #1D0F7C",
"|+	c #281C82",
"1+	c #241880",
"2+	c #21157E",
"3+	c #261A81",
"4+	c #3B328D",
"5+	c #2E2386",
"6+	c #271B82",
"7+	c #2D2285",
"8+	c #382E8C",
"9+	c #281B82",
"0+	c #22147F",
"a+	c #241780",
"b+	c #3E358F",
"c+	c #1F127D",
"d+	c #55509C",
"e+	c #6159A3",
"f+	c #D0CDE3",
"g+	c #A8A2CC",
"h+	c #716AAD",
"i+	c #7168AC",
"j+	c #8D89BD",
"k+	c #554F9C",
"l+	c #A7A3CD",
"m+	c #4B4596",
"n+	c #8C87BC",
"o+	c #8782BA",
"p+	c #8B85BC",
"q+	c #494295",
"r+	c #B7B3D5",
"s+	c #251C81",
"t+	c #281E82",
"u+	c #2C2184",
"v+	c #413990",
"w+	c #3F388F",
"x+	c #382F8C",
"y+	c #39318C",
"z+	c #312988",
"A+	c #1D157C",
"B+	c #453E92",
"C+	c #1A117A",
"D+	c #332988",
"E+	c #291E83",
"F+	c #5B559F",
"G+	c #160A78",
"H+	c #423A91",
"I+	c #130576",
"J+	c #0E0074",
"K+	c #3B348D",
"L+	c #756FAF",
"M+	c #413A91",
"N+	c #726BAD",
"O+	c #908CBE",
"P+	c #282182",
"Q+	c #817DB6",
"R+	c #362A8A",
"S+	c #8782B9",
"T+	c #574E9D",
"U+	c #312887",
"V+	c #726DAD",
"W+	c #332B88",
"X+	c #8B86BC",
"Y+	c #524A9B",
"Z+	c #4D4398",
"`+	c #645EA5",
" @	c #6A65A9",
".@	c #423B91",
"+@	c #908CBF",
"@@	c #352B8A",
"#@	c #453B93",
"$@	c #5B55A1",
"%@	c #7B76B3",
"&@	c #2C2085",
"*@	c #756FAE",
"=@	c #9A94C4",
"-@	c #625EA4",
";@	c #9790C3",
">@	c #746CAE",
",@	c #9F9AC7",
"'@	c #B0ABD1",
")@	c #5A4F9F",
"!@	c #B1ADD2",
"~@	c #7B75B2",
"{@	c #847EB8",
"]@	c #B1ACD2",
"^@	c #4F4899",
"/@	c #9791C3",
"(@	c #58509E",
"_@	c #9E98C6",
":@	c #8A87BC",
"<@	c #9490C1",
"[@	c #6B66A9",
"}@	c #B5B2D4",
"|@	c #51499A",
"1@	c #918BBF",
"2@	c #736DAE",
"3@	c #AEABD1",
"4@	c #312788",
"5@	c #150677",
"6@	c #2A1F84",
"7@	c #1B0D7B",
"8@	c #271C82",
"9@	c #160778",
"0@	c #2A1E84",
"a@	c #281D83",
"b@	c #1B0C7B",
"c@	c #20137E",
"d@	c #1E117D",
"e@	c #1C0F7C",
"f@	c #1C0D7C",
"g@	c #1A0B7A",
"h@	c #180979",
"i@	c #20127E",
"j@	c #22157F",
"k@	c #190B7A",
"l@	c #504799",
"m@	c #1A0D7A",
"n@	c #170879",
"o@	c #281C83",
"p@	c #160878",
"q@	c #1B0F7B",
"r@	c #1C0E7C",
"s@	c #140677",
"t@	c #1B107B",
"u@	c #231680",
"v@	c #281D82",
"w@	c #281E83",
"x@	c #140577",
"y@	c #1E127C",
"z@	c #1E127D",
"A@	c #22177F",
"B@	c #463D94",
"C@	c #BCB9D8",
"D@	c #847DB8",
"E@	c #5E59A1",
"F@	c #9B96C5",
"G@	c #938FC0",
"H@	c #7973B1",
"I@	c #59539E",
"J@	c #A7A2CC",
"K@	c #5C58A0",
"L@	c #B6B3D5",
"M@	c #BDBAD9",
"N@	c #BAB6D7",
"O@	c #403B90",
"P@	c #8F89BE",
"Q@	c #0F0274",
"R@	c #302587",
"S@	c #4C4697",
"T@	c #4B4397",
"U@	c #5D56A1",
"V@	c #675FA6",
"W@	c #453E93",
"X@	c #494296",
"Y@	c #2B2384",
"Z@	c #8681B8",
"`@	c #2D2585",
" #	c #534C9B",
".#	c #6862A7",
"+#	c #413790",
"@#	c #544E9C",
"##	c #4E4598",
"$#	c #7A75B2",
"%#	c #2B2084",
"&#	c #21117F",
". + + + + + + + + + + + + + + + + + + + + + + + + + + + + + + @ ",
"+ # # # $ # # # # # # # # # # # # # # # # # # # # # # # # # # % ",
"+ # & * = - # # # # # # # # # # ; ; > , ' ; # # # # # # # # # % ",
"+ # ) ! ~ { ] # # # # # # # ^ / ( _ : < [ } | 1 # # # # # # # % ",
"+ # # 2 3 4 5 # # # # # 6 7 8 9 0 a b c d e [ a f # # # # # # % ",
"+ # # g h g i # # # ; j k l m n o $ # # # ; p q r # # # # # # % ",
"+ # # # # # # # # s t u v w # # # # # # # # x y z # # # # # # % ",
"+ # A B C # # # p D E F # # # # # # # # # # # G # # # # # H # % ",
"+ # I J K ^ # L M k N $ # # # # # # # # # # # # O P Q # R S T % ",
"+ # U V W ; X Y Z ` # # # # # # # # # # # # # #  ...+.@.#.$.%.% ",
"+ &.*.=.-.# ;.>.,.$ # # # # # # # ; '.).!.$ # ~.K ..{.].^./.(.% ",
"+ (._.:.<.1 [.}.H # # # # # $ |.1.2.3.q 9 4.# 5.6.7.8.9.0.a.b.% ",
"+ c.d.e.f.~.g.h.~.# # # # ; i.j.k.l.m.n.o.p.# q.r.s.t.u.v.w.1 % ",
"x.y.z.A.# ; B.C.D.# # # # # E.F.G.H.k.I.J.; # K.L.M.N.O.P.Q.$ % ",
"+ # b.1 # # R.S.T.U.V.W.X.Y.v Z.j.`. +m..+; # ~.5.; # ++@+#+# % ",
"+ # # # # # $+%+I.&+*+M =+-+;+>+,+'.'+)+!+# # # # # # # # # # % ",
"+ # # # # # # ; ~+{+]+^+/+(+_+^ # # :+}.<+# # # # # # # # # # % ",
"+ # # # # # # # # # ; ; $ # # # # # & [+# # # # # # # # # # # % ",
"+ # # # # # # # # # # # # # # # # # # # # # # # # # # # # # # % ",
"+ # # # # # # # }+@ |+1+2+3+4+5+6+7+8+9+0+a+b+c+# # # # # # # % ",
"+ # # # # # # # d+e+f+g+h+i+j+k+l+m+n+o+p+q+r+s+# # # # # # # % ",
"+ # # # # # # # t+u+v+w+x+y+z+A+B+C+D+E+F+G+H+I+# # # # # # # % ",
"+ # # ; f.1 J+; f.; f.; f.^ ; ~.; f.^ ; ^ ^ ; f.; ; 1 J+; # # % ",
"+ # ; K+L+M+N+H+O+P+Q+R+S+T+U+V+W+X+Y+Z+`+ @.@+@@@#@$@%@&@; # % ",
"+ # ~.*@=@-@;@>@,@W '@)@!@~@{@]@^@/@(@_@:@<@[@}@|@1@2@3@4@; # % ",
"+ # # 5@6@7@8@9@0@5 a@b@c@d@c@e@f@g@h@g@i@j@k@l@m@E+n@o@k@# # % ",
"+ # # # # # # p@q@r@s@t@u@v@e@5@w@x@y@z@$+A@5 z@$ # # # # # # % ",
"+ # # # # # $ B@C@D@E@F@F+G@H@I@J@K@L@M@W+N@O@P@Q@# # # # # # % ",
"+ # # # # # # R@S@T@U@V@4@W@X@Y@Z@`@ #.#+#@###$#%## # # # # # % ",
"+ # # # # # # ; 1 1 1 1 ; 1 1 ; ~.; 1 ~.1 ; 1 ~.; # # # # # # % ",
"+ # # # # # # # # # # # # # # # # # # # # # # # # # # # # # # % ",
"&#% % % % % % % % % % % % % % % % % % % % % % % % % % % % % % @ "};
